<?xml version="1.0" standalone="no"?>
<!DOCTYPE svg PUBLIC "-//W3C//DTD SVG 20010904//EN"
 "http://www.w3.org/TR/2001/REC-SVG-20010904/DTD/svg10.dtd">
<svg version="1.0" xmlns="http://www.w3.org/2000/svg"
 width="1082.000000pt" height="1082.000000pt" viewBox="0 0 1082.000000 1082.000000"
 preserveAspectRatio="xMidYMid meet">
<metadata>
Created by potrace 1.11, written by Peter Selinger 2001-2013
</metadata>
<g transform="translate(0.000000,1082.000000) scale(0.100000,-0.100000)"
fill="#000000" stroke="none">
<path d="M4613 10156 c-112 -36 -234 -132 -271 -214 -27 -61 -29 -371 -3 -537
59 -390 74 -480 96 -585 14 -63 43 -207 65 -320 49 -245 116 -531 171 -730 50
-178 99 -392 93 -402 -3 -5 -17 -8 -32 -8 -41 -1 -92 -27 -296 -154 -512 -319
-977 -708 -1247 -1043 -167 -208 -338 -478 -466 -738 -213 -433 -336 -848
-376 -1269 l-12 -129 -150 -32 c-491 -106 -905 -324 -1189 -627 -94 -99 -135
-171 -161 -279 -29 -123 -14 -189 57 -255 92 -87 247 -125 519 -127 140 -1
178 3 259 22 235 58 429 141 733 313 l179 101 26 -34 c15 -19 53 -62 85 -95
l58 -61 -35 -101 c-19 -56 -38 -122 -41 -147 l-7 -45 43 0 c36 0 53 8 116 56
40 31 84 70 98 86 l26 30 47 -17 c26 -10 51 -21 55 -25 5 -4 -25 -108 -67
-231 -118 -351 -149 -497 -166 -772 -18 -290 26 -428 157 -493 58 -29 218 -26
296 5 79 31 190 107 279 190 160 150 264 338 407 734 64 179 88 278 96 403 l7
101 75 17 c263 62 537 178 863 366 351 202 522 314 708 463 495 397 832 914
985 1510 37 144 43 160 66 169 24 10 79 16 406 48 138 13 403 36 650 56 561
45 863 110 1545 335 361 120 503 175 705 273 186 91 314 175 383 250 59 65 67
87 59 156 -9 72 -38 119 -117 193 -95 88 -144 111 -245 115 -86 4 -491 -30
-640 -53 -49 -8 -110 -17 -135 -21 -86 -12 -586 -103 -712 -129 -151 -31 -946
-237 -1138 -295 -132 -40 -672 -181 -676 -177 -1 1 -4 56 -5 123 l-4 120 42
50 c24 27 114 137 201 244 87 107 195 239 241 294 157 186 316 459 356 611 20
74 21 287 2 361 -38 147 -219 328 -384 383 -102 34 -359 25 -533 -19 -294 -75
-735 -269 -975 -428 -133 -88 -162 -114 -209 -187 -33 -50 -33 -50 -93 -53
l-60 -3 -6 244 c-10 365 -42 643 -127 1092 -11 61 -32 189 -45 285 -58 399
-101 584 -181 779 -62 148 -121 223 -202 255 -51 20 -188 21 -249 2z m482
-3456 c3 -11 3 -30 0 -41 -9 -27 -377 -448 -611 -699 -212 -228 -324 -361
-465 -555 -59 -83 -167 -224 -239 -315 -231 -291 -314 -402 -415 -550 -123
-182 -193 -273 -214 -281 -9 -4 -24 -2 -33 3 -32 16 -21 59 38 138 31 41 107
149 169 240 63 91 182 251 266 355 83 105 210 269 282 365 209 281 231 310
313 405 42 50 154 173 249 275 169 182 519 577 571 645 31 41 78 49 89 15z
m586 -110 c39 -21 22 -52 -106 -190 -311 -335 -451 -524 -693 -935 -39 -66
-127 -203 -196 -305 -410 -605 -733 -1105 -787 -1214 -27 -55 -49 -105 -49
-112 0 -12 -37 -44 -52 -44 -15 0 -38 33 -38 54 0 43 120 264 246 451 69 105
175 267 235 360 59 94 186 285 283 425 96 140 240 363 319 496 210 349 346
537 552 758 60 65 130 142 155 170 92 104 94 105 131 86z m557 -262 c49 -49
-51 -220 -282 -481 -171 -194 -247 -292 -382 -496 -125 -190 -301 -447 -408
-596 -119 -166 -309 -451 -421 -630 -101 -162 -194 -286 -323 -429 -39 -44
-78 -95 -87 -115 -27 -61 -31 -66 -58 -69 -18 -2 -29 3 -37 18 -23 42 23 128
129 243 91 99 173 205 243 312 35 55 114 176 174 270 60 93 205 307 323 475
117 168 269 389 337 492 176 267 248 364 394 529 71 80 152 173 180 207 53 67
123 181 135 222 15 52 56 75 83 48z"/>
</g>
</svg>
